<?xml version="1.0" encoding="UTF-8"?>
<svg xmlns="http://www.w3.org/2000/svg" viewBox="0 0 721 721" role="img">
  <g transform="translate(0 0.5)">
    <g transform="translate(-429.055951,1136.583395) scale(0.100000,-0.100000)" fill="#ffffff" stroke="none">
      <path d="M7545 11359 c-574 -67 -1049 -225 -1511 -502 -259 -156 -471 -322
-689 -541 -606 -607 -974 -1397 -1046 -2244 -19 -226 -5 -662 26 -841 l6 -34
77 7 c395 36 1060 307 1717 699 99 59 255 157 255 160 0 1 -93 2 -208 3 -279
1 -473 32 -707 114 -124 44 -323 148 -425 223 l-85 62 40 7 c22 4 204 14 405
23 752 33 1132 85 1540 208 831 252 1030 293 1364 284 200 -5 288 -23 400 -78
146 -72 236 -160 376 -364 105 -152 159 -208 238 -247 73 -36 44 -34 382 -27
126 2 141 0 220 -26 228 -78 403 -278 484 -553 15 -51 14 -54 -2 -47 -9 4 -71
19 -137 33 -108 23 -141 26 -340 26 -235 0 -311 -7 -547 -54 -304 -61 -580
-175 -768 -315 -129 -97 -396 -362 -513 -509 -363 -456 -666 -1042 -942 -1821
-71 -201 -225 -683 -225 -705 0 -18 14 -22 220 -66 287 -62 357 -69 740 -69
337 0 364 2 530 28 429 66 786 183 1156 376 525 275 983 687 1318 1185 326
484 529 1043 592 1626 23 213 15 682 -14 880 -63 418 -170 761 -348 1120 -489
984 -1416 1695 -2502 1921 -245 51 -354 61 -682 64 -173 2 -351 -1 -395 -6z"/>
    </g>
  </g>
</svg>
